<svg width="144" height="145" viewBox="0 0 144 145" fill="none" xmlns="http://www.w3.org/2000/svg">
<circle cx="72" cy="73" r="71" fill="#324DBF"/>
<path d="M99.0504 72.8372C100.388 71.4478 102.71 68.6349 103.231 65.4173C103.347 64.695 103.365 63.9911 103.283 63.3234C102.722 58.7344 97.7799 53.8588 85.6818 55.2241C72.8652 56.6712 59.0275 62.5954 49.5718 70.6826C46.707 73.1387 41.8709 77.9842 41.673 82.8198C41.5908 84.7886 42.2915 86.5345 43.794 88.0521C46.1495 90.1244 49.5439 90.819 53.03 90.819C55.642 90.819 58.3083 90.429 60.621 89.9414L61.2244 89.8137L61.5566 85.471L60.5477 85.6112C58.561 85.8886 56.5011 86.0011 54.5841 85.931C51.9607 85.8519 48.706 85.2547 47.7494 84.1301C47.5448 83.8893 47.4689 83.6549 47.5024 83.4078C47.8709 81.3662 50.1354 77.9258 58.8291 73.1508C68.4219 68.1016 77.75 65.103 86.5567 64.2374C88.6684 64.0243 90.3656 63.9783 91.8922 64.0882C92.965 64.1642 93.7971 64.2922 94.4582 64.4781C94.9668 64.6582 95.2993 64.9141 95.4515 65.237C95.6739 65.7122 95.531 66.337 95.3845 66.7363C95.2871 66.9651 95.1804 67.1933 95.0647 67.4157L95.0067 67.5256C94.5467 68.3848 93.9339 69.2443 93.1389 70.1522C92.4989 70.8838 91.7312 71.6515 90.7924 72.4988C90.0153 73.1995 89.1654 73.8454 88.51 74.3269L88.1746 74.5769V74.9946L88.1777 79.9218C88.577 79.7329 91.8192 78.0932 92.1666 77.9075C94.8425 76.5117 97.1582 74.8025 99.0569 72.8306" fill="white"/>
<path d="M92.1843 27.6861C90.539 25.8727 88.3629 24.9433 85.7116 24.9224C84.231 24.9099 82.7072 25.2909 81.2962 26.0194C70.6798 31.5076 68.1745 45.0282 67.1782 56.1936L67.0625 57.5067L68.2907 57.0314C70.5274 56.1689 72.7611 55.41 74.9278 54.7763L75.4731 54.6178L75.5156 54.051C76.0064 47.4139 77.195 39.083 82.0705 33.5611C83.2684 32.2539 85.0754 30.8491 86.8763 31.5835C89.1188 32.4978 90.5785 36.3313 90.4262 40.9084L90.3991 41.7556H95.485L95.552 41.0089C95.5855 40.6525 96.2894 32.2147 92.188 27.6894L92.1848 27.6863L92.1843 27.6861Z" fill="white"/>
<path d="M75.681 70.0953L75.6538 69.0198L74.6235 69.3307C72.2161 70.0556 69.7815 70.918 67.3836 71.893L66.8712 72.1034V72.6581C66.8896 78.9597 66.8287 84.2287 66.4813 89.4546C66.2557 92.6329 65.8841 96.8169 65.0003 101.019C64.1441 105.307 62.9007 108.576 61.295 110.749C59.3781 113.446 56.0199 114.656 53.311 113.626C50.8948 112.702 49.2735 110.545 49.0877 107.994L49.0327 107.232L44.1024 107.241L44.026 107.976C43.4655 113.3 47.1891 118.76 52.4973 120.406C53.7135 120.802 54.9994 121 56.3218 121C57.7599 121 59.2379 120.766 60.719 120.296C65.7164 118.678 69.5473 114.418 72.122 107.595L72.2409 107.226C74.252 100.903 75.3459 93.992 75.6876 85.4752C75.8975 80.2246 75.8002 74.9985 75.6813 70.0984V70.0953H75.681Z" fill="white"/>
</svg>
